/* XPM */
static char *result[] = {
/* columns rows colors chars-per-pixel */
"32 32 3 1 ",
"  c gray78",
". c white",
"X c None",
/* pixels */
"XXXXXXXXXXXXXXXXXXXXXXXXXXXXXXXX",
"XXXXXXXXXXXXXXXXXXXXXXXXXXXXXXXX",
"XXXXXXXXXXX....XXXXXX....XXXXXXX",
"XXXXXXXXXXX....XXXXXX....XXXXXXX",
"XXXXXXXXXXX....XXXXXX....XXXXXXX",
"XXXXXXXXXXX....XXXXXX....XXXXXXX",
"XXXXXXXXXXX..  XXXXXX..  XXXXXXX",
"XXXXXXXXXXX..  XXXXXX..  XXXXXXX",
"XXXXXXXXX....XXXXXX....XXXXXXXXX",
"XXXXXXXXX....XXXXXX....XXXXXXXXX",
"X..............................X",
"X..............................X",
"X        ....      ....        X",
"X        ....      ....        X",
"XXXXXXXXX..  XXXXXX....XXXXXXXXX",
"XXXXXXXXX..  XXXXXX....XXXXXXXXX",
"XXXXXXX....XXXXXX....XXXXXXXXXXX",
"XXXXXXX....XXXXXX....XXXXXXXXXXX",
"XXXXXXX....XXXXXX....XXXXXXXXXXX",
"XXXXXXX....XXXXXX....XXXXXXXXXXX",
"X............................XXX",
"X............................XXX",
"X    ....      ....          XXX",
"X    ....      ....          XXX",
"XXXXX....XXXXXX....XXXXXXXXXXXXX",
"XXXXX....XXXXXX....XXXXXXXXXXXXX",
"XXXXX....XXXXXX....XXXXXXXXXXXXX",
"XXXXX....XXXXXX....XXXXXXXXXXXXX",
"XXXXX    XXXXXX    XXXXXXXXXXXXX",
"XXXXX    XXXXXX    XXXXXXXXXXXXX",
"XXXXXXXXXXXXXXXXXXXXXXXXXXXXXXXX",
"XXXXXXXXXXXXXXXXXXXXXXXXXXXXXXXX"
};
