/* XPM */
static char *result[] = {
/* columns rows colors chars-per-pixel */
"32 32 3 1 ",
"  c gray78",
". c white",
"X c None",
/* pixels */
"XXXXXXXXXXXXXXXXXXXXXXXXXXXXXXXX",
"XXXXXXXXXXXXXXXXXXXXXXXXXXXXXXXX",
"XXXXXXXXXX............XXXXXXXXXX",
"XXXXXXXXXX............XXXXXXXXXX",
"XXXXXXXX................XXXXXXXX",
"XXXXXXXX................XXXXXXXX",
"XXXXXXXX......    ......XXXXXXXX",
"XXXXXXXX......    ......XXXXXXXX",
"XXXXXXXX....  XXXX  ....XXXXXXXX",
"XXXXXXXX....  XXXX  ....XXXXXXXX",
"XXXXXXXX....XXXXXXXX....XXXXXXXX",
"XXXXXXXX....XXXXXXXX....XXXXXXXX",
"XXXXXXXX....XXXXXXXX....XXXXXXXX",
"XXXXXXXX....XXXXXXXX....XXXXXXXX",
"XXXXXXXX....XXXXXXXX....XXXXXXXX",
"XXXXXXXX....XXXXXXXX....XXXXXXXX",
"XXXXXXXX....XXXXXXXX....XXXXXXXX",
"XXXXXXXX....XXXXXXXX....XXXXXXXX",
"XXXXXXXX....XXXXXXXX....XXXXXXXX",
"XXXXXXXX....XXXXXXXX....XXXXXXXX",
"XXXXXXXX....XXXXXXXX....XXXXXXXX",
"XXXXXXXX....XXXXXXXX....XXXXXXXX",
"XXXXXXXX....XXXXXXXX....XXXXXXXX",
"XXXXXXXX....XXXXXXXX....XXXXXXXX",
"XXXXXXXX....XXXXXXXX....XXXXXXXX",
"XXXXXXXX....XXXXXXXX....XXXXXXXX",
"XXXXXXXX  ....XXXX....  XXXXXXXX",
"XXXXXXXX  ....XXXX....  XXXXXXXX",
"XXXXXXXXXX............XXXXXXXXXX",
"XXXXXXXXXX............XXXXXXXXXX",
"XXXXXXXXXX            XXXXXXXXXX",
"XXXXXXXXXX            XXXXXXXXXX"
};
