/* XPM */
static char *result[] = {
/* columns rows colors chars-per-pixel */
"16 32 3 1 ",
"  c gray78",
". c white",
"X c None",
/* pixels */
"XXXXXXXXXXXXXXXX",
"XXXXXX......XXXX",
"XXXXXX......XXXX",
"XXXXXX......XXXX",
"XXXXXX......XXXX",
"XX..........XXXX",
"XX..........XXXX",
"XX..........XXXX",
"XX..........XXXX",
"XX    ......XXXX",
"XX    ......XXXX",
"XXXXXX......XXXX",
"XXXXXX......XXXX",
"XXXXXX......XXXX",
"XXXXXX......XXXX",
"XXXXXX......XXXX",
"XXXXXX......XXXX",
"XXXXXX......XXXX",
"XXXXXX......XXXX",
"XXXXXX......XXXX",
"XXXXXX......XXXX",
"XXXXXX......XXXX",
"XXXXXX......XXXX",
"XXXXXX......XXXX",
"XXXXXX......XXXX",
"................",
"................",
"................",
"................",
"                ",
"                ",
"XXXXXXXXXXXXXXXX"
};
