/* XPM */
static char *result[] = {
/* columns rows colors chars-per-pixel */
"32 32 3 1 ",
"  c gray78",
". c white",
"X c None",
/* pixels */
"XXXXXXXXXXXXXXXXXXXXXXXXXXXXXXXX",
"XXXXXXXXXXXXXXXXXXXXXXXXXXXXXXXX",
"XXXXXXXXXXXXX......XXXXXXXXXXXXX",
"XXXXXXXXXXXXX......XXXXXXXXXXXXX",
"XXXXXXXXXXXXX......XXXXXXXXXXXXX",
"XXXXXXXXXXXXX......XXXXXXXXXXXXX",
"XXXXXXXXX..........XXXXXXXXXXXXX",
"XXXXXXXXX..........XXXXXXXXXXXXX",
"XXXXXXXXX..........XXXXXXXXXXXXX",
"XXXXXXXXX..........XXXXXXXXXXXXX",
"XXXXXXXXX    ......XXXXXXXXXXXXX",
"XXXXXXXXX    ......XXXXXXXXXXXXX",
"XXXXXXXXXXXXX......XXXXXXXXXXXXX",
"XXXXXXXXXXXXX......XXXXXXXXXXXXX",
"XXXXXXXXXXXXX......XXXXXXXXXXXXX",
"XXXXXXXXXXXXX......XXXXXXXXXXXXX",
"XXXXXXXXXXXXX......XXXXXXXXXXXXX",
"XXXXXXXXXXXXX......XXXXXXXXXXXXX",
"XXXXXXXXXXXXX......XXXXXXXXXXXXX",
"XXXXXXXXXXXXX......XXXXXXXXXXXXX",
"XXXXXXXXXXXXX......XXXXXXXXXXXXX",
"XXXXXXXXXXXXX......XXXXXXXXXXXXX",
"XXXXXXXXXXXXX......XXXXXXXXXXXXX",
"XXXXXXXXXXXXX......XXXXXXXXXXXXX",
"XXXXXXXXXXXXX......XXXXXXXXXXXXX",
"XXXXXXXXXXXXX......XXXXXXXXXXXXX",
"XXXXXXX................XXXXXXXXX",
"XXXXXXX................XXXXXXXXX",
"XXXXXXX................XXXXXXXXX",
"XXXXXXX................XXXXXXXXX",
"XXXXXXX                XXXXXXXXX",
"XXXXXXX                XXXXXXXXX"
};
