/* XPM */
static char *result[] = {
/* columns rows colors chars-per-pixel */
"32 32 3 1 ",
"  c gray78",
". c white",
"X c None",
/* pixels */
"XXXXXXXXXXXXXXXXXXXXXXXXXXXXXXXX",
"XXXXXXXXXXXXXXXXXXXXXXXXXXXXXXXX",
"XXXXXXXXXX............XXXXXXXXXX",
"XXXXXXXXXX............XXXXXXXXXX",
"XXXXXXXX................XXXXXXXX",
"XXXXXXXX................XXXXXXXX",
"XXXXXXXX................XXXXXXXX",
"XXXXXXXX................XXXXXXXX",
"XXXXXXXX......      ....XXXXXXXX",
"XXXXXXXX......      ....XXXXXXXX",
"XXXXXXXX....  XXXXXX....XXXXXXXX",
"XXXXXXXX....  XXXXXX....XXXXXXXX",
"XXXXXXXX..  XXXXXXXX....XXXXXXXX",
"XXXXXXXX..  XXXXXXXX....XXXXXXXX",
"XXXXXXXX  XXXXXXXXXX....XXXXXXXX",
"XXXXXXXX  XXXXXXXXXX....XXXXXXXX",
"XXXXXXXXXXXXXXXXXX......XXXXXXXX",
"XXXXXXXXXXXXXXXXXX......XXXXXXXX",
"XXXXXXXXXXXXXXXX......  XXXXXXXX",
"XXXXXXXXXXXXXXXX......  XXXXXXXX",
"XXXXXXXXXXXXXX......  XXXXXXXXXX",
"XXXXXXXXXXXXXX......  XXXXXXXXXX",
"XXXXXXXXXXXX......  XXXXXXXXXXXX",
"XXXXXXXXXXXX......  XXXXXXXXXXXX",
"XXXXXXXXXX......  XXXXXXXXXXXXXX",
"XXXXXXXXXX......  XXXXXXXXXXXXXX",
"XXXXXXXX......  XXXXXXXXXXXXXXXX",
"XXXXXXXX......  XXXXXXXXXXXXXXXX",
"XXXXXXXX................XXXXXXXX",
"XXXXXXXX................XXXXXXXX",
"XXXXXXXX                XXXXXXXX",
"XXXXXXXX                XXXXXXXX"
};
