/* XPM */
static char *result[] = {
/* columns rows colors chars-per-pixel */
"16 32 3 1 ",
"  c gray78",
". c white",
"X c None",
/* pixels */
"XXXXXXXXXXXXXXXX",
"XX............XX",
"XX............XX",
"................",
"................",
"................",
"................",
"......      ....",
"......      ....",
"....  XXXXXX....",
"....  XXXXXX....",
"..  XXXXXXXX....",
"..  XXXXXXXX....",
"  XXXXXXXXXX....",
"  XXXXXXXXXX....",
"XXXXXXXXXX......",
"XXXXXXXXXX......",
"XXXXXXXX......  ",
"XXXXXXXX......  ",
"XXXXXX......  XX",
"XXXXXX......  XX",
"XXXX......  XXXX",
"XXXX......  XXXX",
"XX......  XXXXXX",
"XX......  XXXXXX",
"......  XXXXXXXX",
"......  XXXXXXXX",
"................",
"................",
"                ",
"                ",
"XXXXXXXXXXXXXXXX"
};
