/* XPM */
static char *result[] = {
/* columns rows colors chars-per-pixel */
"32 32 3 1 ",
"  c gray78",
". c white",
"X c None",
/* pixels */
"XXXXXXXXXXXXXXXXXXXXXXXXXXXXXXXX",
"XXXXXXXXXXXXXXXXXXXXXXXXXXXXXXXX",
"XXXXXXXX................XXXXXXXX",
"XXXXXXXX................XXXXXXXX",
"XXXXXXXX..        ......XXXXXXXX",
"XXXXXXXX..        ......XXXXXXXX",
"XXXXXXXX  XXXXXXXX  ....XXXXXXXX",
"XXXXXXXX  XXXXXXXX  ....XXXXXXXX",
"XXXXXXXXXXXXXXXXXXXX....XXXXXXXX",
"XXXXXXXXXXXXXXXXXXXX....XXXXXXXX",
"XXXXXXXXXXXXXXXXXXXX....XXXXXXXX",
"XXXXXXXXXXXXXXXXXXXX....XXXXXXXX",
"XXXXXXXXXXXXXXXXXXXX....XXXXXXXX",
"XXXXXXXXXXXXXXXXXXXX....XXXXXXXX",
"XXXXXXXXXX............  XXXXXXXX",
"XXXXXXXXXX............  XXXXXXXX",
"XXXXXXXXXX          ..XXXXXXXXXX",
"XXXXXXXXXX          ..XXXXXXXXXX",
"XXXXXXXXXXXXXXXXXXXX....XXXXXXXX",
"XXXXXXXXXXXXXXXXXXXX....XXXXXXXX",
"XXXXXXXXXXXXXXXXXXXX....XXXXXXXX",
"XXXXXXXXXXXXXXXXXXXX....XXXXXXXX",
"XXXXXXXXXXXXXXXXXXXX....XXXXXXXX",
"XXXXXXXXXXXXXXXXXXXX....XXXXXXXX",
"XXXXXXXXXXXXXXXXXXXX....XXXXXXXX",
"XXXXXXXXXXXXXXXXXXXX....XXXXXXXX",
"XXXXXXXX..XXXXXXXX......XXXXXXXX",
"XXXXXXXX..XXXXXXXX......XXXXXXXX",
"XXXXXXXX..............  XXXXXXXX",
"XXXXXXXX..............  XXXXXXXX",
"XXXXXXXX              XXXXXXXXXX",
"XXXXXXXX              XXXXXXXXXX"
};
