/* XPM */
static char *result[] = {
/* columns rows colors chars-per-pixel */
"16 32 3 1 ",
"  c gray78",
". c white",
"X c None",
/* pixels */
"XXXXXXXXXXXXXXXX",
"X....XXXXXXXXXXX",
"X....XXXXXXXXXXX",
"X....XXXXXXXXXXX",
"X....XXXXXXXXXXX",
"X....XXXXXXXXXXX",
"X....XXXXXXXXXXX",
"X....XXXXXX....X",
"X....XXXXXX....X",
"X....XXXXXX....X",
"X....XXXXXX....X",
"X....XXXXXX....X",
"X....XXXXXX....X",
"X....XXXXXX....X",
"X....XXXXXX....X",
"X..............X",
"X..............X",
"X    ..........X",
"X    ..........X",
"XXXXX      ....X",
"XXXXX      ....X",
"XXXXXXXXXXX....X",
"XXXXXXXXXXX....X",
"XXXXXXXXXXX....X",
"XXXXXXXXXXX....X",
"XXXXXXXXXXX....X",
"XXXXXXXXXXX....X",
"XXXXXXXXXXX....X",
"XXXXXXXXXXX....X",
"XXXXXXXXXXX    X",
"XXXXXXXXXXX    X",
"XXXXXXXXXXXXXXXX"
};
