/* XPM */
static char *result[] = {
/* columns rows colors chars-per-pixel */
"32 32 3 1 ",
"  c gray78",
". c white",
"X c None",
/* pixels */
"XXXXXXXXXXXXXXXXXXXXXXXXXXXXXXXX",
"XXXXXXXXXXXXXXXXXXXXXXXXXXXXXXXX",
"XXXXXXXXX....XXXXXXXXXXXXXXXXXXX",
"XXXXXXXXX....XXXXXXXXXXXXXXXXXXX",
"XXXXXXXXX....XXXXXXXXXXXXXXXXXXX",
"XXXXXXXXX....XXXXXXXXXXXXXXXXXXX",
"XXXXXXXXX....XXXXXXXXXXXXXXXXXXX",
"XXXXXXXXX....XXXXXXXXXXXXXXXXXXX",
"XXXXXXXXX....XXXXXX....XXXXXXXXX",
"XXXXXXXXX....XXXXXX....XXXXXXXXX",
"XXXXXXXXX....XXXXXX....XXXXXXXXX",
"XXXXXXXXX....XXXXXX....XXXXXXXXX",
"XXXXXXXXX....XXXXXX....XXXXXXXXX",
"XXXXXXXXX....XXXXXX....XXXXXXXXX",
"XXXXXXXXX....XXXXXX....XXXXXXXXX",
"XXXXXXXXX....XXXXXX....XXXXXXXXX",
"XXXXXXXXX..............XXXXXXXXX",
"XXXXXXXXX..............XXXXXXXXX",
"XXXXXXXXX    ..........XXXXXXXXX",
"XXXXXXXXX    ..........XXXXXXXXX",
"XXXXXXXXXXXXX      ....XXXXXXXXX",
"XXXXXXXXXXXXX      ....XXXXXXXXX",
"XXXXXXXXXXXXXXXXXXX....XXXXXXXXX",
"XXXXXXXXXXXXXXXXXXX....XXXXXXXXX",
"XXXXXXXXXXXXXXXXXXX....XXXXXXXXX",
"XXXXXXXXXXXXXXXXXXX....XXXXXXXXX",
"XXXXXXXXXXXXXXXXXXX....XXXXXXXXX",
"XXXXXXXXXXXXXXXXXXX....XXXXXXXXX",
"XXXXXXXXXXXXXXXXXXX....XXXXXXXXX",
"XXXXXXXXXXXXXXXXXXX....XXXXXXXXX",
"XXXXXXXXXXXXXXXXXXX    XXXXXXXXX",
"XXXXXXXXXXXXXXXXXXX    XXXXXXXXX"
};
