/* XPM */
static char *result[] = {
/* columns rows colors chars-per-pixel */
"16 32 3 1 ",
"  c gray78",
". c white",
"X c None",
/* pixels */
"XXXXXXXXXXXXXXXX",
"................",
"................",
"....            ",
"....            ",
"....XXXXXXXXXXXX",
"....XXXXXXXXXXXX",
"....XXXXXXXXXXXX",
"....XXXXXXXXXXXX",
"....XXXXXXXXXXXX",
"....XXXXXXXXXXXX",
"................",
"................",
"  ..............",
"  ..............",
"XX          ....",
"XX          ....",
"XXXXXXXXXXXX....",
"XXXXXXXXXXXX....",
"XXXXXXXXXXXX....",
"XXXXXXXXXXXX....",
"XXXXXXXXXXXX....",
"XXXXXXXXXXXX....",
"..XXXXXXXXXX....",
"..XXXXXXXXXX....",
"................",
"................",
"................",
"................",
"                ",
"                ",
"XXXXXXXXXXXXXXXX"
};
