/* XPM */
static char *result[] = {
/* columns rows colors chars-per-pixel */
"16 32 3 1 ",
"  c gray78",
". c white",
"X c None",
/* pixels */
"XXXXXXXXXXXXXXXX",
"................",
"................",
"....        ....",
"....        ....",
"....XXXXXXXX    ",
"....XXXXXXXX    ",
"....XXXXXXXXXXXX",
"....XXXXXXXXXXXX",
"....XXXXXXXXXXXX",
"....XXXXXXXXXXXX",
"................",
"................",
"................",
"................",
"....        ....",
"....        ....",
"....XXXXXXXX....",
"....XXXXXXXX....",
"....XXXXXXXX....",
"....XXXXXXXX....",
"....XXXXXXXX....",
"....XXXXXXXX....",
"....XXXXXXXX....",
"....XXXXXXXX....",
"................",
"................",
"................",
"................",
"                ",
"                ",
"XXXXXXXXXXXXXXXX"
};
