/* XPM */
static char *result[] = {
/* columns rows colors chars-per-pixel */
"16 32 3 1 ",
"  c gray78",
". c white",
"X c None",
/* pixels */
"XXXXXXXXXXXXXXXX",
"................",
"................",
"................",
"................",
"              ..",
"              ..",
"XXXXXXXXXXXX....",
"XXXXXXXXXXXX....",
"XXXXXXXXXXXX....",
"XXXXXXXXXXXX....",
"XXXXXXXXXXXX..  ",
"XXXXXXXXXXXX..  ",
"XXXX..........XX",
"XXXX..........XX",
"XXXX..........XX",
"XXXX..........XX",
"XXXX      ..  XX",
"XXXX      ..  XX",
"XXXXXXXXXX..XXXX",
"XXXXXXXXXX..XXXX",
"XXXXXXXX....XXXX",
"XXXXXXXX....XXXX",
"XXXXXXXX....XXXX",
"XXXXXXXX....XXXX",
"XXXXXXXX..  XXXX",
"XXXXXXXX..  XXXX",
"XXXXXX....XXXXXX",
"XXXXXX....XXXXXX",
"XXXXXX    XXXXXX",
"XXXXXX    XXXXXX",
"XXXXXXXXXXXXXXXX"
};
