/* XPM */
static char *result[] = {
/* columns rows colors chars-per-pixel */
"32 32 3 1 ",
"  c gray78",
". c white",
"X c None",
/* pixels */
"XXXXXXXXXXXXXXXXXXXXXXXXXXXXXXXX",
"XXXXXXXXXXXXXXXXXXXXXXXXXXXXXXXX",
"XXXXXXX..................XXXXXXX",
"XXXXXXX..................XXXXXXX",
"XXXXXXX..................XXXXXXX",
"XXXXXXX..................XXXXXXX",
"XXXXXXX              ..  XXXXXXX",
"XXXXXXX              ..  XXXXXXX",
"XXXXXXXXXXXXXXXXXXX....XXXXXXXXX",
"XXXXXXXXXXXXXXXXXXX....XXXXXXXXX",
"XXXXXXXXXXXXXXXXXXX....XXXXXXXXX",
"XXXXXXXXXXXXXXXXXXX....XXXXXXXXX",
"XXXXXXXXXXXXXXXXXXX..  XXXXXXXXX",
"XXXXXXXXXXXXXXXXXXX..  XXXXXXXXX",
"XXXXXXXXXXX..........XXXXXXXXXXX",
"XXXXXXXXXXX..........XXXXXXXXXXX",
"XXXXXXXXXXX..........XXXXXXXXXXX",
"XXXXXXXXXXX..........XXXXXXXXXXX",
"XXXXXXXXXXX      ..  XXXXXXXXXXX",
"XXXXXXXXXXX      ..  XXXXXXXXXXX",
"XXXXXXXXXXXXXXXXX..XXXXXXXXXXXXX",
"XXXXXXXXXXXXXXXXX..XXXXXXXXXXXXX",
"XXXXXXXXXXXXXXX....XXXXXXXXXXXXX",
"XXXXXXXXXXXXXXX....XXXXXXXXXXXXX",
"XXXXXXXXXXXXXXX....XXXXXXXXXXXXX",
"XXXXXXXXXXXXXXX....XXXXXXXXXXXXX",
"XXXXXXXXXXXXXXX..  XXXXXXXXXXXXX",
"XXXXXXXXXXXXXXX..  XXXXXXXXXXXXX",
"XXXXXXXXXXXXX....XXXXXXXXXXXXXXX",
"XXXXXXXXXXXXX....XXXXXXXXXXXXXXX",
"XXXXXXXXXXXXX    XXXXXXXXXXXXXXX",
"XXXXXXXXXXXXX    XXXXXXXXXXXXXXX"
};
