/* XPM */
static char *result[] = {
/* columns rows colors chars-per-pixel */
"16 32 3 1 ",
"  c gray78",
". c white",
"X c None",
/* pixels */
"XXXXXXXXXXXXXXXX",
"XX............XX",
"XX............XX",
"................",
"................",
"......    ......",
"......    ......",
"....  XXXX  ....",
"....  XXXX  ....",
"....XXXXXXXX....",
"....XXXXXXXX....",
"....XXXXXXXX....",
"....XXXXXXXX....",
"  ............  ",
"  ............  ",
"XX............XX",
"XX............XX",
"....        ....",
"....        ....",
"....XXXXXXXX....",
"....XXXXXXXX....",
"....XXXXXXXX....",
"....XXXXXXXX....",
"....XXXXXXXX....",
"....XXXXXXXX....",
"......XXXX......",
"......XXXX......",
"  ............  ",
"  ............  ",
"XX            XX",
"XX            XX",
"XXXXXXXXXXXXXXXX"
};
