/* XPM */
static char *result[] = {
/* columns rows colors chars-per-pixel */
"64 64 10 1 ",
"  c #21110D",
". c #342319",
"X c #181C32",
"o c #242A3D",
"O c #503625",
"+ c #755338",
"@ c #414B66",
"# c #677598",
"$ c #B6BEC8",
"% c None",
/* pixels */
"%%%%%%%%%%%%%%%%%%%%%%%%%%%%%%%%%%%%%%%%%%%%%%%%%%%%%%%%%%%%%%%%",
"%%%%%%%%%%%%%%%%%%%%%%%%%%%%%%%%%%%%%%%%%%%%%%%%%%%%%%%%%%%%%%%%",
"%%%%%%%%%%%%%%%%%%%%%%%%%%%%%%%%%%%%%%%%%%%%%%%%%%%%%%%%%%%%%%%%",
"%%%%%%%%%%%%%%%%%%%%%%%%%%%%%%%%%%%%%%%%%%%%%%%%%%%%%%%%%%%%%%%%",
"%%%%%%%                                                %%%%%%%%%",
"%%%%%%%                                                %%%%%%%%%",
"%%%%%%%                                                %%%%%%%%%",
"%%%%%%%                                                %%%%%%%%%",
"%%%    OOOO########OOOOOOOOOOOOOOOOOOOOOOOO########OOOO    %%%%%",
"%%%    OOOO########OOOOOOOOOOOOOOOOOOOOOOOO########OOOO    %%%%%",
"%%%    OOOO########OOOOOOOOOOOOOOOOOOOOOOOO########OOOO    %%%%%",
"%%%    OOOO########OOOOOOOOOOOOOOOOOOOOOOOO########OOOO    %%%%%",
"%%%    ++++$$$$$$$$++++++++++++++++++++++++$$$$$$$$++++    %%%%%",
"%%%    ++++$$$$$$$$++++++++++++++++++++++++$$$$$$$$++++    %%%%%",
"%%%    ++++$$$$$$$$++++++++++++++++++++++++$$$$$$$$++++    %%%%%",
"%%%    ++++$$$$$$$$++++++++++++++++++++++++$$$$$$$$++++    %%%%%",
"%%%    ++++$$$$$$$$++++++++++++++++++++++++$$$$$$$$++++    %%%% ",
"%%%    ++++$$$$$$$$++++++++++++++++++++++++$$$$$$$$++++    %%%% ",
"%%%    ++++$$$$$$$$++++++++++++++++++++++++$$$$$$$$++++    %%%% ",
"%%%    ++++$$$$$$$$++++++++++++++++++++++++$$$$$$$$++++    %%%% ",
"%%%    ++++$$$$$$$$++++++++++++++++++++++++$$$$$$$$++++    %%%% ",
"%%%    ++++$$$$$$$$++++++++++++++++++++++++$$$$$$$$++++    %%%% ",
"%%%    ++++$$$$$$$$++++++++++++++++++++++++$$$$$$$$++++    %%%% ",
"%%%    ++++$$$$$$$$++++++++++++++++++++++++$$$$$$$$++++    %%%% ",
"%%%    ++++$$$$$$$$++++++++++++++++++++++++$$$$$$$$++++    %%%% ",
"%%%    ++++$$$$$$$$++++++++++++++++++++++++$$$$$$$$++++    %%%% ",
"%%%    ++++$$$$$$$$++++++++++++++++++++++++$$$$$$$$++++    %%%% ",
"%%%    ++++$$$$$$$$++++++++++++++++++++++++$$$$$$$$++++    %%%% ",
"%%%    OOOO########OOOOOOOOOOOOOOOOOOOOOOOO########OOOO    %%%% ",
"%%%    OOOO########OOOOOOOOOOOOOOOOOOOOOOOO########OOOO    %%%% ",
"%%%    OOOO########OOOOOOOOOOOOOOOOOOOOOOOO########OOOO    %%%% ",
"%%%    OOOO########OOOOOOOOOOOOOOOOOOOOOOOO########OOOO    %%%% ",
"%%%    ################$$$$$$$$$$$$$$$$################    %%%% ",
"%%%    ################$$$$$$$$$$$$$$$$################    %%%% ",
"%%%    ################$$$$$$$$$$$$$$$$################    %%%% ",
"%%%    ################$$$$$$$$$$$$$$$$################    %%%% ",
"%%%    ....@@@@@@@@....@@@@oooooooo@@@@....@@@@@@@@....    %%%% ",
"%%%    ....@@@@@@@@....@@@@oooooooo@@@@....@@@@@@@@....    %%%% ",
"%%%    ....@@@@@@@@....@@@@oooooooo@@@@....@@@@@@@@....    %%%% ",
"%%%    ....@@@@@@@@....@@@@oooooooo@@@@....@@@@@@@@....    %%%% ",
"XXX    ....########OOOO####oooooooo####OOOO########....    XXXXX",
"XXX    ....########OOOO####oooooooo####OOOO########....    XXXXX",
"XXX    ....########OOOO####oooooooo####OOOO########....    XXXXX",
"XXX    ....########OOOO####oooooooo####OOOO########....    XXXXX",
"XXX    ....########OOOO################OOOO########....    XXXXX",
"XXX    ....########OOOO################OOOO########....    XXXXX",
"XXX    ....########OOOO################OOOO########....    XXXXX",
"XXX    ....########OOOO################OOOO########....    XXXXX",
"XXX    ....########OOOOOOOOOOOOOOOOOOOOOOOO########....    XXXXX",
"XXX    ....########OOOOOOOOOOOOOOOOOOOOOOOO########....    XXXXX",
"XXX    ....########OOOOOOOOOOOOOOOOOOOOOOOO########....    XXXXX",
"XXX    ....########OOOOOOOOOOOOOOOOOOOOOOOO########....    XXXXX",
"XXXXXXX    ########OOOOOOOOOOOOOOOOOOOOOOOO########    XXXXXXXXX",
"XXXXXXX    ########OOOOOOOOOOOOOOOOOOOOOOOO########    XXXXXXXXX",
"XXXXXXX    ########OOOOOOOOOOOOOOOOOOOOOOOO########    XXXXXXXXX",
"XXXXXXX    ########OOOOOOOOOOOOOOOOOOOOOOOO########    XXXXXXXXX",
"%%%XXXXXXXXXXXXXXXXXXXXXXXXXXXXXXXXXXXXXXXXXXXXXXXXXXXXXXXX%%%%%",
"%%%XXXXXXXXXXXXXXXXXXXXXXXXXXXXXXXXXXXXXXXXXXXXXXXXXXXXXXXX%%%%%",
"%%%XXXXXXXXXXXXXXXXXXXXXXXXXXXXXXXXXXXXXXXXXXXXXXXXXXXXXXXX%%%%%",
"%%%XXXXXXXXXXXXXXXXXXXXXXXXXXXXXXXXXXXXXXXXXXXXXXXXXXXXXXXX%%%%%",
"%%%%%%%%%%%XXXXXXXXXXXXXXXXXXXXXXXXXXXXXXXXXXXXXXXX%%%%%%%%%%%%%",
"%%%%%%%%%%%XXXXXXXXXXXXXXXXXXXXXXXXXXXXXXXXXXXXXXXX%%%%%%%%%%%%%",
"%%%%%%%%%%%XXXXXXXXXXXXXXXXXXXXXXXXXXXXXXXXXXXXXXXX%%%%%%%%%%%%%",
"%%%%%%%%%%%XXXXXXXXXXXXXXXXXXXXXXXXXXXXXXXXXXXXXXXX%%%%%%%%%%%%%"
};
