/* XPM */
static char *result[] = {
/* columns rows colors chars-per-pixel */
"64 64 10 1 ",
"  c #21110D",
". c #342319",
"X c #181C32",
"o c #242A3D",
"O c #503625",
"+ c #755338",
"@ c #414B66",
"# c #677598",
"$ c #B6BEC8",
"% c None",
/* pixels */
"%%%%%%%%%%%%%%%%%%%%%%%%%%%%%%%%%%%%%%%%%%%%%%%%%%%%%%%%%%%%%%%%",
"%%%%%%%%%%%%%%%%%%%%%%%%%%%%%%%%%%%%%%%%%%%%%%%%%%%%%%%%%%%%%%%%",
"%%%%%%%%%%%%%%%%%%%%%%%%%%%%%%%%%%%%%%%%%%%%%%%%%%%%%%%%%%%%%%%%",
"%%%%%%%%%%%%%%%%%%%%%%%%%%%%%%%%%%%%%%%%%%%%%%%%%%%%%%%%%%%%%%%%",
"%%%%%%%%                                                %%%%%%%%",
"%%%%%%%%                                                %%%%%%%%",
"%%%%%%%%                                                %%%%%%%%",
"%%%%%%%%                                                %%%%%%%%",
"%%%%    OOOO########OOOOOOOOOOOOOOOOOOOOOOOO########OOOO    %%%%",
"%%%%    OOOO########OOOOOOOOOOOOOOOOOOOOOOOO########OOOO    %%%%",
"%%%%    OOOO########OOOOOOOOOOOOOOOOOOOOOOOO########OOOO    %%%%",
"%%%%    OOOO########OOOOOOOOOOOOOOOOOOOOOOOO########OOOO    %%%%",
"%%%%    ++++$$$$$$$$++++++++++++++++++++++++$$$$$$$$++++    %%%%",
"%%%%    ++++$$$$$$$$++++++++++++++++++++++++$$$$$$$$++++    %%%%",
"%%%%    ++++$$$$$$$$++++++++++++++++++++++++$$$$$$$$++++    %%%%",
"%%%%    ++++$$$$$$$$++++++++++++++++++++++++$$$$$$$$++++    %%%%",
"%%%%    ++++$$$$$$$$++++++++++++++++++++++++$$$$$$$$++++    %%%%",
"%%%%    ++++$$$$$$$$++++++++++++++++++++++++$$$$$$$$++++    %%%%",
"%%%%    ++++$$$$$$$$++++++++++++++++++++++++$$$$$$$$++++    %%%%",
"%%%%    ++++$$$$$$$$++++++++++++++++++++++++$$$$$$$$++++    %%%%",
"%%%%    ++++$$$$$$$$++++++++++++++++++++++++$$$$$$$$++++    %%%%",
"%%%%    ++++$$$$$$$$++++++++++++++++++++++++$$$$$$$$++++    %%%%",
"%%%%    ++++$$$$$$$$++++++++++++++++++++++++$$$$$$$$++++    %%%%",
"%%%%    ++++$$$$$$$$++++++++++++++++++++++++$$$$$$$$++++    %%%%",
"%%%%    ++++$$$$$$$$++++++++++++++++++++++++$$$$$$$$++++    %%%%",
"%%%%    ++++$$$$$$$$++++++++++++++++++++++++$$$$$$$$++++    %%%%",
"%%%%    ++++$$$$$$$$++++++++++++++++++++++++$$$$$$$$++++    %%%%",
"%%%%    ++++$$$$$$$$++++++++++++++++++++++++$$$$$$$$++++    %%%%",
"%%%%    OOOO########OOOOOOOOOOOOOOOOOOOOOOOO########OOOO    %%%%",
"%%%%    OOOO########OOOOOOOOOOOOOOOOOOOOOOOO########OOOO    %%%%",
"%%%%    OOOO########OOOOOOOOOOOOOOOOOOOOOOOO########OOOO    %%%%",
"%%%%    OOOO########OOOOOOOOOOOOOOOOOOOOOOOO########OOOO    %%%%",
"%%%%    ################$$$$$$$$$$$$$$$$################    %%%%",
"%%%%    ################$$$$$$$$$$$$$$$$################    %%%%",
"%%%%    ################$$$$$$$$$$$$$$$$################    %%%%",
"%%%%    ################$$$$$$$$$$$$$$$$################    %%%%",
"%%%%    ....@@@@@@@@....@@@@oooooooo@@@@....@@@@@@@@....    %%%%",
"%%%%    ....@@@@@@@@....@@@@oooooooo@@@@....@@@@@@@@....    %%%%",
"%%%%    ....@@@@@@@@....@@@@oooooooo@@@@....@@@@@@@@....    %%%%",
"%%%%    ....@@@@@@@@....@@@@oooooooo@@@@....@@@@@@@@....    %%%%",
"XXXX    ....########OOOO####oooooooo####OOOO########....    XXXX",
"XXXX    ....########OOOO####oooooooo####OOOO########....    XXXX",
"XXXX    ....########OOOO####oooooooo####OOOO########....    XXXX",
"XXXX    ....########OOOO####oooooooo####OOOO########....    XXXX",
"XXXX    ....########OOOO################OOOO########....    XXXX",
"XXXX    ....########OOOO################OOOO########....    XXXX",
"XXXX    ....########OOOO################OOOO########....    XXXX",
"XXXX    ....########OOOO################OOOO########....    XXXX",
"XXXX    ....########OOOOOOOOOOOOOOOOOOOOOOOO########....    XXXX",
"XXXX    ....########OOOOOOOOOOOOOOOOOOOOOOOO########....    XXXX",
"XXXX    ....########OOOOOOOOOOOOOOOOOOOOOOOO########....    XXXX",
"XXXX    ....########OOOOOOOOOOOOOOOOOOOOOOOO########....    XXXX",
"XXXXXXXX    ########OOOOOOOOOOOOOOOOOOOOOOOO########    XXXXXXXX",
"XXXXXXXX    ########OOOOOOOOOOOOOOOOOOOOOOOO########    XXXXXXXX",
"XXXXXXXX    ########OOOOOOOOOOOOOOOOOOOOOOOO########    XXXXXXXX",
"XXXXXXXX    ########OOOOOOOOOOOOOOOOOOOOOOOO########    XXXXXXXX",
"%%%%XXXXXXXXXXXXXXXXXXXXXXXXXXXXXXXXXXXXXXXXXXXXXXXXXXXXXXXX%%%%",
"%%%%XXXXXXXXXXXXXXXXXXXXXXXXXXXXXXXXXXXXXXXXXXXXXXXXXXXXXXXX%%%%",
"%%%%XXXXXXXXXXXXXXXXXXXXXXXXXXXXXXXXXXXXXXXXXXXXXXXXXXXXXXXX%%%%",
"%%%%XXXXXXXXXXXXXXXXXXXXXXXXXXXXXXXXXXXXXXXXXXXXXXXXXXXXXXXX%%%%",
"%%%%%%%%%%%%XXXXXXXXXXXXXXXXXXXXXXXXXXXXXXXXXXXXXXXX%%%%%%%%%%%%",
"%%%%%%%%%%%%XXXXXXXXXXXXXXXXXXXXXXXXXXXXXXXXXXXXXXXX%%%%%%%%%%%%",
"%%%%%%%%%%%%XXXXXXXXXXXXXXXXXXXXXXXXXXXXXXXXXXXXXXXX%%%%%%%%%%%%",
"%%%%%%%%%%%%XXXXXXXXXXXXXXXXXXXXXXXXXXXXXXXXXXXXXXXX%%%%%%%%%%%%"
};
