/* XPM */
static char *result[] = {
/* columns rows colors chars-per-pixel */
"64 64 9 1 ",
"  c black",
". c #21110D",
"X c #342319",
"o c #503625",
"O c #755338",
"+ c #D99945",
"@ c #E9CE7C",
"# c #677598",
"$ c None",
/* pixels */
"###........................................................#####",
"###........................................................#####",
"###........................................................#####",
"###........................................................#####",
"...OOOOOOOOOOOOOOOOOOOOOOOOOOOOOOOOOOOOOOOOOOOOOOOOOOOOOOOO.....",
"...OOOOOOOOOOOOOOOOOOOOOOOOOOOOOOOOOOOOOOOOOOOOOOOOOOOOOOOO.....",
"...OOOOOOOOOOOOOOOOOOOOOOOOOOOOOOOOOOOOOOOOOOOOOOOOOOOOOOOO.....",
"...OOOOOOOOOOOOOOOOOOOOOOOOOOOOOOOOOOOOOOOOOOOOOOOOOOOOOOOO.....",
"...OOOOOOOOOOOOOOOOOOOOOOOOOOOOOOOOOOOOOOOOOOOOOOOOOOOOOOOO.....",
"...OOOOOOOOOOOOOOOOOOOOOOOOOOOOOOOOOOOOOOOOOOOOOOOOOOOOOOOO.....",
"...OOOOOOOOOOOOOOOOOOOOOOOOOOOOOOOOOOOOOOOOOOOOOOOOOOOOOOOO.....",
"...OOOOOOOOOOOOOOOOOOOOOOOOOOOOOOOOOOOOOOOOOOOOOOOOOOOOOOOO.....",
"...ooooXXXXXXXXXXXXXXXXXXXXXXXXXXXXXXXXXXXXXXXXXXXXXXXXoooo.....",
"...ooooXXXXXXXXXXXXXXXXXXXXXXXXXXXXXXXXXXXXXXXXXXXXXXXXoooo.....",
"...ooooXXXXXXXXXXXXXXXXXXXXXXXXXXXXXXXXXXXXXXXXXXXXXXXXoooo.....",
"...ooooXXXXXXXXXXXXXXXXXXXXXXXXXXXXXXXXXXXXXXXXXXXXXXXXoooo.....",
"...OOOOXXXXooooooooXXXXooooooooooooooooXXXXooooooooXXXXOOOO.....",
"...OOOOXXXXooooooooXXXXooooooooooooooooXXXXooooooooXXXXOOOO.....",
"...OOOOXXXXooooooooXXXXooooooooooooooooXXXXooooooooXXXXOOOO.....",
"...OOOOXXXXooooooooXXXXooooooooooooooooXXXXooooooooXXXXOOOO.....",
"...OOOOXXXXooooooooooooooooooooooooooooXXXXooooooooXXXXOOOO.....",
"...OOOOXXXXooooooooooooooooooooooooooooXXXXooooooooXXXXOOOO.....",
"...OOOOXXXXooooooooooooooooooooooooooooXXXXooooooooXXXXOOOO.....",
"...OOOOXXXXooooooooooooooooooooooooooooXXXXooooooooXXXXOOOO.....",
"...OOOOXXXXooooooooooooooooooooooooooooooooooooooooXXXXOOOO.....",
"...OOOOXXXXooooooooooooooooooooooooooooooooooooooooXXXXOOOO.....",
"...OOOOXXXXooooooooooooooooooooooooooooooooooooooooXXXXOOOO.....",
"...OOOOXXXXooooooooooooooooooooooooooooooooooooooooXXXXOOOO.....",
"...OOOOXXXXooooooooooooooooooooooooooooooooooooooooXXXXOOOO.....",
"...OOOOXXXXooooooooooooooooooooooooooooooooooooooooXXXXOOOO.....",
"...OOOOXXXXooooooooooooooooooooooooooooooooooooooooXXXXOOOO.....",
"...OOOOXXXXooooooooooooooooooooooooooooooooooooooooXXXXOOOO.....",
"...OOOOXXXXoooooooooooooooooooooooooooooooo@@@@++++XXXXOOOO.....",
"...OOOOXXXXoooooooooooooooooooooooooooooooo@@@@++++XXXXOOOO.....",
"...OOOOXXXXoooooooooooooooooooooooooooooooo@@@@++++XXXXOOOO.....",
"...OOOOXXXXoooooooooooooooooooooooooooooooo@@@@++++XXXXOOOO.....",
"...OOOOXXXXoooooooooooooooooooooooooooooooo++++++++XXXXOOOO.....",
"...OOOOXXXXoooooooooooooooooooooooooooooooo++++++++XXXXOOOO.....",
"...OOOOXXXXoooooooooooooooooooooooooooooooo++++++++XXXXOOOO.....",
"...OOOOXXXXoooooooooooooooooooooooooooooooo++++++++XXXXOOOO.....",
"...OOOOXXXXooooooooooooooooooooooooooooooooXXXXXXXXXXXXOOOO.....",
"...OOOOXXXXooooooooooooooooooooooooooooooooXXXXXXXXXXXXOOOO.....",
"...OOOOXXXXooooooooooooooooooooooooooooooooXXXXXXXXXXXXOOOO.....",
"...OOOOXXXXooooooooooooooooooooooooooooooooXXXXXXXXXXXXOOOO.....",
"...OOOOXXXXooooooooXXXXooooooooooooooooooooooooooooXXXXOOOO.....",
"...OOOOXXXXooooooooXXXXooooooooooooooooooooooooooooXXXXOOOO.....",
"...OOOOXXXXooooooooXXXXooooooooooooooooooooooooooooXXXXOOOO.....",
"...OOOOXXXXooooooooXXXXooooooooooooooooooooooooooooXXXXOOOO.....",
"...OOOOXXXXooooooooXXXXooooooooooooooooooooooooooooXXXXOOOO.....",
"...OOOOXXXXooooooooXXXXooooooooooooooooooooooooooooXXXXOOOO.....",
"...OOOOXXXXooooooooXXXXooooooooooooooooooooooooooooXXXXOOOO.....",
"...OOOOXXXXooooooooXXXXooooooooooooooooooooooooooooXXXXOOOO.....",
"...OOOOXXXXooooooooXXXXooooooooooooooooXXXXooooooooXXXXOOOO.....",
"...OOOOXXXXooooooooXXXXooooooooooooooooXXXXooooooooXXXXOOOO.....",
"...OOOOXXXXooooooooXXXXooooooooooooooooXXXXooooooooXXXXOOOO.....",
"...OOOOXXXXooooooooXXXXooooooooooooooooXXXXooooooooXXXXOOOO.....",
"...                                                        .....",
"...                                                        .....",
"...                                                        .....",
"...                                                        .....",
"   $$$$$$$$$$$$$$$$$$$$$$$$$$$$$$$$$$$$$$$$$$$$$$$$$$$$$$$$     ",
"   $$$$$$$$$$$$$$$$$$$$$$$$$$$$$$$$$$$$$$$$$$$$$$$$$$$$$$$$     ",
"   $$$$$$$$$$$$$$$$$$$$$$$$$$$$$$$$$$$$$$$$$$$$$$$$$$$$$$$$     ",
"   $$$$$$$$$$$$$$$$$$$$$$$$$$$$$$$$$$$$$$$$$$$$$$$$$$$$$$$$     "
};
