/* XPM */
static char *result[] = {
/* columns rows colors chars-per-pixel */
"64 64 12 1 ",
"  c black",
". c #21110D",
"X c #181C32",
"o c #402717",
"O c #573A23",
"+ c #AC7B5D",
"@ c #1D438A",
"# c #2C65B5",
"$ c #787E97",
"% c #A4A8B5",
"& c #C1AC8F",
"* c None",
/* pixels */
"****************************************************************",
"****************************************************************",
"****************************************************************",
"*******************          ***     ***************************",
"*******************          ***     ***************************",
"*******************          ***     ***************************",
"*******************  OOOOOOoo   OOO        *********************",
"*******************  OOOOOOoo   OOO        *********************",
"*******************  OOOOOOoo   OOO        *********************",
"*******************     OOOOOoooOOOooOOOOOO  *******************",
"*******************     OOOOOoooOOOooOOOOOO  *******************",
"****************   ooOOOOOOOOOOOOOOOOOOOOOOOO   ****************",
"****************   ooOOOOOOOOOOOOOOOOOOOOOOOO   ****************",
"****************   ooOOOOOOOOOOOOOOOOOOOOOOOO   ****************",
"*************   oooOOOOOOOOOOOOOOOOOOOOOOOOOOOOO   *************",
"*************   oooOOOOOOOOOOOOOOOOOOOOOOOOOOOOO   *************",
"*************   oooOOOOOOOOOOOOOOOOOOOOOOOOOOOOO   *************",
"*************   oooOOOOOoooOOOOOOOOoooooOOOOOOOO   *************",
"*************   oooOOOOOoooOOOOOOOOoooooOOOOOOOO   *************",
"*************   oooooooooooOOOOOOOOoo++++++ooOOOooo  ***********",
"*************   oooooooooooOOOOOOOOoo++++++ooOOOooo  ***********",
"*************   oooooooooooOOOOOOOOoo++++++ooOOOooo  ***********",
"*************   oooOOooooooOOOOOooo++++++++++oooooo  ***********",
"*************   oooOOooooooOOOOOooo++++++++++oooooo  ***********",
"*************   oooOOooooooOOOOOooo++++++++++oooooo  ***********",
"*************   oooOOOOO+++ooOOO+++..&&&&&&..   ooo  ***********",
"*************   oooOOOOO+++ooOOO+++..&&&&&&..   ooo  ***********",
"*************   oooooOOO+++++ooo&&&..&&&&&&..      *************",
"*************   oooooOOO+++++ooo&&&..&&&&&&..      *************",
"*************   oooooOOO+++++ooo&&&..&&&&&&..      *************",
"****************   ooooo+++++&&&&&&&&&&&&&&&&   ****************",
"****************   ooooo+++++&&&&&&&&&&&&&&&&   ****************",
"****************   ooooo+++++&&&&&&&&&&&&&&&&   ****************",
"*******************  oooooooo+++&&&&&&&&&&&++   ****************",
"*******************  oooooooo+++&&&&&&&&&&&++   ****************",
"*********************   oooOOOOO+++++++++++  *******************",
"*********************   oooOOOOO+++++++++++  *******************",
"*********************   oooOOOOO+++++++++++  *******************",
"*********************   oooOOOOOOOO$$$$$ooo  *******************",
"*********************   oooOOOOOOOO$$$$$ooo  *******************",
"*********************   oooOOOOOOOO$$$$$ooo  *******************",
"*********************   oooOO&&&&&&%%%%%ooo  *******************",
"*********************   oooOO&&&&&&%%%%%ooo  *******************",
"*********************   ###oo&&&&&&#####@@@  *******************",
"*********************   ###oo&&&&&&#####@@@  *******************",
"*********************   ###oo&&&&&&#####@@@  *******************",
"*******************  oooooo##########@@@@@@  *******************",
"*******************  oooooo##########@@@@@@  *******************",
"*******************  oooooo##########@@@@@@  *******************",
"*******************  oooooo        @@@@@@@@  *******************",
"*******************  oooooo        @@@@@@@@  *******************",
"*******************        XXXXXXXX  @@@ooooo   ****************",
"*******************        XXXXXXXX  @@@ooooo   ****************",
"*******************        XXXXXXXX  @@@ooooo   ****************",
"****************XXXXXXXXXXXXXXXXXXX  oooooooo   XXX*************",
"****************XXXXXXXXXXXXXXXXXXX  oooooooo   XXX*************",
"****************XXXXXXXXXXXXXXXXXXX  oooooooo   XXX*************",
"****************XXXXXXXXXXXXXXXXXXXXXXXXXXXXXXXXXXX*************",
"****************XXXXXXXXXXXXXXXXXXXXXXXXXXXXXXXXXXX*************",
"*******************XXXXXXXXXXXXXXXXXXXXXXXXXXXXX****************",
"*******************XXXXXXXXXXXXXXXXXXXXXXXXXXXXX****************",
"*******************XXXXXXXXXXXXXXXXXXXXXXXXXXXXX****************",
"****************************************************************",
"****************************************************************"
};
