/* XPM */
static char *result[] = {
/* columns rows colors chars-per-pixel */
"64 64 12 1 ",
"  c black",
". c #21110D",
"X c #181C32",
"o c #402717",
"O c #573A23",
"+ c #AC7B5D",
"@ c #1D438A",
"# c #2C65B5",
"$ c #787E97",
"% c #A4A8B5",
"& c #C1AC8F",
"* c None",
/* pixels */
"*******************          ***     ***************************",
"*******************          ***     ***************************",
"*******************          ***     ***************************",
"*******************  OOOOOOoo   OOO        *********************",
"*******************  OOOOOOoo   OOO        *********************",
"*******************  OOOOOOoo   OOO        *********************",
"*******************     OOOOOoooOOOooOOOOOO  *******************",
"*******************     OOOOOoooOOOooOOOOOO  *******************",
"****************   ooOOOOOOOOOOOOOOOOOOOOOOOO   ****************",
"****************   ooOOOOOOOOOOOOOOOOOOOOOOOO   ****************",
"****************   ooOOOOOOOOOOOOOOOOOOOOOOOO   ****************",
"*************   oooOOOOOOOOOOOOOOOOOOOOOOOOOOOOO   *************",
"*************   oooOOOOOOOOOOOOOOOOOOOOOOOOOOOOO   *************",
"*************   oooOOOOOOOOOOOOOOOOOOOOOOOOOOOOO   *************",
"*************   oooOOOOOoooOOOOOOOOoooooOOOOOOOO   *************",
"*************   oooOOOOOoooOOOOOOOOoooooOOOOOOOO   *************",
"*************   oooooooooooOOOOOOOOoo++++++ooOOOooo  ***********",
"*************   oooooooooooOOOOOOOOoo++++++ooOOOooo  ***********",
"*************   oooooooooooOOOOOOOOoo++++++ooOOOooo  ***********",
"*************   oooOOooooooOOOOOooo++++++++++oooooo  ***********",
"*************   oooOOooooooOOOOOooo++++++++++oooooo  ***********",
"*************   oooOOooooooOOOOOooo++++++++++oooooo  ***********",
"*************   oooOOOOO+++ooOOO+++..&&&&&&..   ooo  ***********",
"*************   oooOOOOO+++ooOOO+++..&&&&&&..   ooo  ***********",
"*************   oooooOOO+++++ooo&&&..&&&&&&..      *************",
"*************   oooooOOO+++++ooo&&&..&&&&&&..      *************",
"*************   oooooOOO+++++ooo&&&..&&&&&&..      *************",
"****************   ooooo+++++&&&&&&&&&&&&&&&&   ****************",
"****************   ooooo+++++&&&&&&&&&&&&&&&&   ****************",
"****************   ooooo+++++&&&&&&&&&&&&&&&&   ****************",
"*******************  oooooooo+++&&&&&&&&&&&++   ****************",
"*******************  oooooooo+++&&&&&&&&&&&++   ****************",
"*********************   oooOOooo+++++++++++  *******************",
"*********************   oooOOooo+++++++++++  *******************",
"*********************   oooOOooo+++++++++++  *******************",
"*********************   oooOOOOOooo$$$$$ooo  *******************",
"*********************   oooOOOOOooo$$$$$ooo  *******************",
"*********************   oooOOOOOooo$$$$$ooo  *******************",
"************************   OOOOOooo%%%%%ooo  *******************",
"************************   OOOOOooo%%%%%ooo  *******************",
"************************   &&&&&ooo########  *******************",
"************************   &&&&&ooo########  *******************",
"************************   &&&&&ooo########  *******************",
"*********************   ###&&&&&@@@#####ooooo   ****************",
"*********************   ###&&&&&@@@#####ooooo   ****************",
"*********************   ###&&&&&@@@#####ooooo   ****************",
"*********************   #####@@@     oooooooo   ****************",
"*********************   #####@@@     oooooooo   ****************",
"*******************  ######@@   ***          *******************",
"*******************  ######@@   ***          *******************",
"*******************  ######@@   ***          *******************",
"*******************  oooooo@@   XXXXXXXXXXXXXXXX****************",
"*******************  oooooo@@   XXXXXXXXXXXXXXXX****************",
"*******************  oooooo@@   XXXXXXXXXXXXXXXX****************",
"****************XXX  oooooo  XXXXXXXXXXXXXXXXXXXXXX*************",
"****************XXX  oooooo  XXXXXXXXXXXXXXXXXXXXXX*************",
"****************XXXXXXXXXXXXXXXXXXXXXXXXXXXXXXXXXXX*************",
"****************XXXXXXXXXXXXXXXXXXXXXXXXXXXXXXXXXXX*************",
"****************XXXXXXXXXXXXXXXXXXXXXXXXXXXXXXXXXXX*************",
"*******************XXXXXXXXXXXXXXXXXXXXXXXXXXXXX****************",
"*******************XXXXXXXXXXXXXXXXXXXXXXXXXXXXX****************",
"*******************XXXXXXXXXXXXXXXXXXXXXXXXXXXXX****************",
"****************************************************************",
"****************************************************************"
};
