/* XPM */
static char *result[] = {
/* columns rows colors chars-per-pixel */
"64 96 12 1 ",
"  c black",
". c #21110D",
"X c #181C32",
"o c #402717",
"O c #573A23",
"+ c #AC7B5D",
"@ c #1D438A",
"# c #2C65B5",
"$ c #787E97",
"% c #A4A8B5",
"& c #C1AC8F",
"* c None",
/* pixels */
"***********                ****        *************************",
"***********                ****        *************************",
"***********                ****        *************************",
"***********                ****        *************************",
"***********    OOOOOOOOoooo    OOOO            *****************",
"***********    OOOOOOOOoooo    OOOO            *****************",
"***********    OOOOOOOOoooo    OOOO            *****************",
"***********    OOOOOOOOoooo    OOOO            *****************",
"***********        OOOOOOOOooooOOOOooooOOOOOOOO    *************",
"***********        OOOOOOOOooooOOOOooooOOOOOOOO    *************",
"***********        OOOOOOOOooooOOOOooooOOOOOOOO    *************",
"***********        OOOOOOOOooooOOOOooooOOOOOOOO    *************",
"*******    ooooOOOOOOOOOOOOOOOOOOOOOOOOOOOOOOOOOOOO    *********",
"*******    ooooOOOOOOOOOOOOOOOOOOOOOOOOOOOOOOOOOOOO    *********",
"*******    ooooOOOOOOOOOOOOOOOOOOOOOOOOOOOOOOOOOOOO    *********",
"*******    ooooOOOOOOOOOOOOOOOOOOOOOOOOOOOOOOOOOOOO    *********",
"***    ooooOOOOOOOOOOOOOOOOOOOOOOOOOOOOOOOOOOOOOOOOOOOO    *****",
"***    ooooOOOOOOOOOOOOOOOOOOOOOOOOOOOOOOOOOOOOOOOOOOOO    *****",
"***    ooooOOOOOOOOOOOOOOOOOOOOOOOOOOOOOOOOOOOOOOOOOOOO    *****",
"***    ooooOOOOOOOOOOOOOOOOOOOOOOOOOOOOOOOOOOOOOOOOOOOO    *****",
"***    ooooOOOOOOOOooooOOOOOOOOOOOOooooooooOOOOOOOOOOOO    *****",
"***    ooooOOOOOOOOooooOOOOOOOOOOOOooooooooOOOOOOOOOOOO    *****",
"***    ooooOOOOOOOOooooOOOOOOOOOOOOooooooooOOOOOOOOOOOO    *****",
"***    ooooOOOOOOOOooooOOOOOOOOOOOOooooooooOOOOOOOOOOOO    *****",
"***    ooooooooooooooooOOOOOOOOOOOOoooo++++++++ooooOOOOoooo    *",
"***    ooooooooooooooooOOOOOOOOOOOOoooo++++++++ooooOOOOoooo    *",
"***    ooooooooooooooooOOOOOOOOOOOOoooo++++++++ooooOOOOoooo    *",
"***    ooooooooooooooooOOOOOOOOOOOOoooo++++++++ooooOOOOoooo    *",
"***    ooooOOOOooooooooOOOOOOOOoooo++++++++++++++++oooooooo    *",
"***    ooooOOOOooooooooOOOOOOOOoooo++++++++++++++++oooooooo    *",
"***    ooooOOOOooooooooOOOOOOOOoooo++++++++++++++++oooooooo    *",
"***    ooooOOOOooooooooOOOOOOOOoooo++++++++++++++++oooooooo    *",
"***    ooooOOOOOOOO++++ooooOOOO++++....&&&&&&&&....    oooo    *",
"***    ooooOOOOOOOO++++ooooOOOO++++....&&&&&&&&....    oooo    *",
"***    ooooOOOOOOOO++++ooooOOOO++++....&&&&&&&&....    oooo    *",
"***    ooooOOOOOOOO++++ooooOOOO++++....&&&&&&&&....    oooo    *",
"***    ooooooooOOOO++++++++oooo&&&&....&&&&&&&&....        *****",
"***    ooooooooOOOO++++++++oooo&&&&....&&&&&&&&....        *****",
"***    ooooooooOOOO++++++++oooo&&&&....&&&&&&&&....        *****",
"***    ooooooooOOOO++++++++oooo&&&&....&&&&&&&&....        *****",
"*******    oooooooo++++++++&&&&&&&&&&&&&&&&&&&&&&&&    *********",
"*******    oooooooo++++++++&&&&&&&&&&&&&&&&&&&&&&&&    *********",
"*******    oooooooo++++++++&&&&&&&&&&&&&&&&&&&&&&&&    *********",
"*******    oooooooo++++++++&&&&&&&&&&&&&&&&&&&&&&&&    *********",
"***********    oooooooooooo++++&&&&&&&&&&&&&&&&++++    *********",
"***********    oooooooooooo++++&&&&&&&&&&&&&&&&++++    *********",
"***********    oooooooooooo++++&&&&&&&&&&&&&&&&++++    *********",
"***********    oooooooooooo++++&&&&&&&&&&&&&&&&++++    *********",
"***************    ooooOOOOoooo++++++++++++++++    *************",
"***************    ooooOOOOoooo++++++++++++++++    *************",
"***************    ooooOOOOoooo++++++++++++++++    *************",
"***************    ooooOOOOoooo++++++++++++++++    *************",
"***************    ooooOOOOOOOOoooo$$$$$$$$oooo    *************",
"***************    ooooOOOOOOOOoooo$$$$$$$$oooo    *************",
"***************    ooooOOOOOOOOoooo$$$$$$$$oooo    *************",
"***************    ooooOOOOOOOOoooo$$$$$$$$oooo    *************",
"*******************    OOOOOOOOoooo%%%%%%%%oooo    *************",
"*******************    OOOOOOOOoooo%%%%%%%%oooo    *************",
"*******************    OOOOOOOOoooo%%%%%%%%oooo    *************",
"*******************    OOOOOOOOoooo%%%%%%%%oooo    *************",
"*******************    &&&&&&&&oooo############    *************",
"*******************    &&&&&&&&oooo############    *************",
"*******************    &&&&&&&&oooo############    *************",
"*******************    &&&&&&&&oooo############    *************",
"***************    ####&&&&&&&&@@@@########oooooooo    *********",
"***************    ####&&&&&&&&@@@@########oooooooo    *********",
"***************    ####&&&&&&&&@@@@########oooooooo    *********",
"***************    ####&&&&&&&&@@@@########oooooooo    *********",
"***************    ########@@@@        oooooooooooo    *********",
"***************    ########@@@@        oooooooooooo    *********",
"***************    ########@@@@        oooooooooooo    *********",
"***************    ########@@@@        oooooooooooo    *********",
"***********    ########@@@@    ****                *************",
"***********    ########@@@@    ****                *************",
"***********    ########@@@@    ****                *************",
"***********    ########@@@@    ****                *************",
"***********    oooooooo@@@@    XXXXXXXXXXXXXXXXXXXXXXXX*********",
"***********    oooooooo@@@@    XXXXXXXXXXXXXXXXXXXXXXXX*********",
"***********    oooooooo@@@@    XXXXXXXXXXXXXXXXXXXXXXXX*********",
"***********    oooooooo@@@@    XXXXXXXXXXXXXXXXXXXXXXXX*********",
"*******XXXX    oooooooo    XXXXXXXXXXXXXXXXXXXXXXXXXXXXXXXX*****",
"*******XXXX    oooooooo    XXXXXXXXXXXXXXXXXXXXXXXXXXXXXXXX*****",
"*******XXXX    oooooooo    XXXXXXXXXXXXXXXXXXXXXXXXXXXXXXXX*****",
"*******XXXX    oooooooo    XXXXXXXXXXXXXXXXXXXXXXXXXXXXXXXX*****",
"*******XXXXXXXXXXXXXXXXXXXXXXXXXXXXXXXXXXXXXXXXXXXXXXXXXXXX*****",
"*******XXXXXXXXXXXXXXXXXXXXXXXXXXXXXXXXXXXXXXXXXXXXXXXXXXXX*****",
"*******XXXXXXXXXXXXXXXXXXXXXXXXXXXXXXXXXXXXXXXXXXXXXXXXXXXX*****",
"*******XXXXXXXXXXXXXXXXXXXXXXXXXXXXXXXXXXXXXXXXXXXXXXXXXXXX*****",
"***********XXXXXXXXXXXXXXXXXXXXXXXXXXXXXXXXXXXXXXXXXXXX*********",
"***********XXXXXXXXXXXXXXXXXXXXXXXXXXXXXXXXXXXXXXXXXXXX*********",
"***********XXXXXXXXXXXXXXXXXXXXXXXXXXXXXXXXXXXXXXXXXXXX*********",
"***********XXXXXXXXXXXXXXXXXXXXXXXXXXXXXXXXXXXXXXXXXXXX*********",
"****************************************************************",
"****************************************************************",
"****************************************************************",
"****************************************************************"
};
