/* XPM */
static char *result[] = {
/* columns rows colors chars-per-pixel */
"64 64 10 1 ",
"  c black",
". c #181C32",
"X c #1D235D",
"o c #9E2E46",
"O c #33418A",
"+ c #425B9E",
"@ c #4D8AB3",
"# c #65B1B8",
"$ c white",
"% c None",
/* pixels */
"%%%%%%%%%%%%%%%%%%%%%%%%%%%%%%%%%%%%%%%%%%%%%%%%%%%%%%%%%%%%%%%%",
"%%%%%%%%%%%%%%%%%%%%%%%%%%%%%%%%%%%%%%%%%%%%%%%%%%%%%%%%%%%%%%%%",
"%%%%%%%%%%%%%%%%%%%%%%%%%%%%%%%%%%%%%%%%%%%%%%%%%%%%%%%%%%%%%%%%",
"%%%%%%%%%%%%%%%%%%%%%%%%%%%%%%%%%%%%%%%%%%%%%%%%%%%%%%%%%%%%%%%%",
"%%%%%%%%%%%%%%%%%%%%%%%%%%%%%%%%%%%%%%%%%%%%%%%%%%%%%%%%%%%%%%%%",
"%%%%%%%%%%%%%%%%%%%%%%%%%%%%%%%%%%%%%%%%%%%%%%%%%%%%%%%%%%%%%%%%",
"%%%%%%%%%%%%%%%%%%%%%%%%%%%%%%%%%%%%%%%%%%%%%%%%%%%%%%%%%%%%%%%%",
"%%%%%%%%%%%%%%%%%%%%%%%%%%%%%%%%%%%%%%%%%%%%%%%%%%%%%%%%%%%%%%%%",
"%%%%%%%%%%%%%%%XXXXXXXXXXXXXXXXXXXXXXXXXXXXXXXX%%%%%%%%%%%%%%%%%",
"%%%%%%%%%%%%%%%XXXXXXXXXXXXXXXXXXXXXXXXXXXXXXXX%%%%%%%%%%%%%%%%%",
"%%%%%%%%%%%%%%%XXXXXXXXXXXXXXXXXXXXXXXXXXXXXXXX%%%%%%%%%%%%%%%%%",
"%%%%%%%%%%%%%%%XXXXXXXXXXXXXXXXXXXXXXXXXXXXXXXX%%%%%%%%%%%%%%%%%",
"%%%%%%%%%%%XXXX++++@@@@@@@@@@@@@@@@@@@@@@@@@@@@XXXX%%%%%%%%%%%%%",
"%%%%%%%%%%%XXXX++++@@@@@@@@@@@@@@@@@@@@@@@@@@@@XXXX%%%%%%%%%%%%%",
"%%%%%%%%%%%XXXX++++@@@@@@@@@@@@@@@@@@@@@@@@@@@@XXXX%%%%%%%%%%%%%",
"%%%%%%%%%%%XXXX++++@@@@@@@@@@@@@@@@@@@@@@@@@@@@XXXX%%%%%%%%%%%%%",
"%%%%%%%XXXX++++@@@@@@@@########################++++XXXX%%%%%%%%%",
"%%%%%%%XXXX++++@@@@@@@@########################++++XXXX%%%%%%%%%",
"%%%%%%%XXXX++++@@@@@@@@########################++++XXXX%%%%%%%%%",
"%%%%%%%XXXX++++@@@@@@@@########################++++XXXX%%%%%%%%%",
"%%%%%%%XXXX@@@@@@@@################################XXXX%%%%%%%%%",
"%%%%%%%XXXX@@@@@@@@################################XXXX%%%%%%%%%",
"%%%%%%%XXXX@@@@@@@@################################XXXX%%%%%%%%%",
"%%%%%%%XXXX@@@@@@@@################################XXXX%%%%%%%%%",
"%%%%%%%XXXX@@@@@@@@########$$$$    ########    ####++++XXXX%%%%%",
"%%%%%%%XXXX@@@@@@@@########$$$$    ########    ####++++XXXX%%%%%",
"%%%%%%%XXXX@@@@@@@@########$$$$    ########    ####++++XXXX%%%%%",
"%%%%%%%XXXX@@@@@@@@########$$$$    ########    ####++++XXXX%%%%%",
"%%%XXXX++++@@@@############        ########    ####@@@@XXXX%%%%%",
"%%%XXXX++++@@@@############        ########    ####@@@@XXXX%%%%%",
"%%%XXXX++++@@@@############        ########    ####@@@@XXXX%%%%%",
"%%%XXXX++++@@@@############        ########    ####@@@@XXXX%%%%%",
"%%%XXXX++++@@@@####OOOOOOOO####################OOOO@@@@XXXX%%%%%",
"%%%XXXX++++@@@@####OOOOOOOO####################OOOO@@@@XXXX%%%%%",
"%%%XXXX++++@@@@####OOOOOOOO####################OOOO@@@@XXXX%%%%%",
"%%%XXXX++++@@@@####OOOOOOOO####################OOOO@@@@XXXX%%%%%",
"%%%XXXX++++@@@@########OOOOOOOOOOOOOOOOOOOOOOOO####@@@@XXXX%%%%%",
"%%%XXXX++++@@@@########OOOOOOOOOOOOOOOOOOOOOOOO####@@@@XXXX%%%%%",
"%%%XXXX++++@@@@########OOOOOOOOOOOOOOOOOOOOOOOO####@@@@XXXX%%%%%",
"%%%XXXX++++@@@@########OOOOOOOOOOOOOOOOOOOOOOOO####@@@@XXXX%%%%%",
"...XXXX++++++++@@@@########ooooooooOOOOOOOO####@@@@++++XXXX....%",
"...XXXX++++++++@@@@########ooooooooOOOOOOOO####@@@@++++XXXX....%",
"...XXXX++++++++@@@@########ooooooooOOOOOOOO####@@@@++++XXXX....%",
"...XXXX++++++++@@@@########ooooooooOOOOOOOO####@@@@++++XXXX....%",
".......XXXX++++++++@@@@@@@@@@@@@@@@@@@@@@@@@@@@++++++++XXXX....%",
".......XXXX++++++++@@@@@@@@@@@@@@@@@@@@@@@@@@@@++++++++XXXX....%",
".......XXXX++++++++@@@@@@@@@@@@@@@@@@@@@@@@@@@@++++++++XXXX....%",
".......XXXX++++++++@@@@@@@@@@@@@@@@@@@@@@@@@@@@++++++++XXXX....%",
"...............++++++++++++++++++++++++++++++++++++XXXX........%",
"...............++++++++++++++++++++++++++++++++++++XXXX........%",
"...............++++++++++++++++++++++++++++++++++++XXXX........%",
"...............++++++++++++++++++++++++++++++++++++XXXX........%",
"%%%........................................................%%%%%",
"%%%........................................................%%%%%",
"%%%........................................................%%%%%",
"%%%........................................................%%%%%",
"%%%%%%%%%%%%%%%%%%%%%%%%%%%%%%%%%%%%%%%%%%%%%%%%%%%%%%%%%%%%%%%%",
"%%%%%%%%%%%%%%%%%%%%%%%%%%%%%%%%%%%%%%%%%%%%%%%%%%%%%%%%%%%%%%%%",
"%%%%%%%%%%%%%%%%%%%%%%%%%%%%%%%%%%%%%%%%%%%%%%%%%%%%%%%%%%%%%%%%",
"%%%%%%%%%%%%%%%%%%%%%%%%%%%%%%%%%%%%%%%%%%%%%%%%%%%%%%%%%%%%%%%%",
"%%%%%%%%%%%%%%%%%%%%%%%%%%%%%%%%%%%%%%%%%%%%%%%%%%%%%%%%%%%%%%%%",
"%%%%%%%%%%%%%%%%%%%%%%%%%%%%%%%%%%%%%%%%%%%%%%%%%%%%%%%%%%%%%%%%",
"%%%%%%%%%%%%%%%%%%%%%%%%%%%%%%%%%%%%%%%%%%%%%%%%%%%%%%%%%%%%%%%%",
"%%%%%%%%%%%%%%%%%%%%%%%%%%%%%%%%%%%%%%%%%%%%%%%%%%%%%%%%%%%%%%%%"
};
