/* XPM */
static char *result[] = {
/* columns rows colors chars-per-pixel */
"64 64 5 1 ",
"  c black",
". c #242A3D",
"X c #414B66",
"o c #677598",
"O c #947C5D",
/* pixels */
"OOOO                                                        OOOO",
"OOOO                                                        OOOO",
"OOOO                                                        OOOO",
"OOOO                                                        OOOO",
"    ooooXXXXXXXXXXXXXXXX....ooooooooooooooooXXXXXXXXXXXXoooo    ",
"    ooooXXXXXXXXXXXXXXXX....ooooooooooooooooXXXXXXXXXXXXoooo    ",
"    ooooXXXXXXXXXXXXXXXX....ooooooooooooooooXXXXXXXXXXXXoooo    ",
"    ooooXXXXXXXXXXXXXXXX....ooooooooooooooooXXXXXXXXXXXXoooo    ",
"    XXXXXXXXXXXXXXXXXXXX....ooooooooooooXXXXXXXXXXXXXXXXXXXX    ",
"    XXXXXXXXXXXXXXXXXXXX....ooooooooooooXXXXXXXXXXXXXXXXXXXX    ",
"    XXXXXXXXXXXXXXXXXXXX....ooooooooooooXXXXXXXXXXXXXXXXXXXX    ",
"    XXXXXXXXXXXXXXXXXXXX....ooooooooooooXXXXXXXXXXXXXXXXXXXX    ",
"    XXXXXXXXXXXXXXXXXXXX....XXXXooooXXXXXXXXXXXXXXXXXXXXXXXX    ",
"    XXXXXXXXXXXXXXXXXXXX....XXXXooooXXXXXXXXXXXXXXXXXXXXXXXX    ",
"    XXXXXXXXXXXXXXXXXXXX....XXXXooooXXXXXXXXXXXXXXXXXXXXXXXX    ",
"    XXXXXXXXXXXXXXXXXXXX....XXXXooooXXXXXXXXXXXXXXXXXXXXXXXX    ",
"    XXXXXXXXXXXXXXXX............XXXXXXXXXXXXXXXXXXXXXXXX        ",
"    XXXXXXXXXXXXXXXX............XXXXXXXXXXXXXXXXXXXXXXXX        ",
"    XXXXXXXXXXXXXXXX............XXXXXXXXXXXXXXXXXXXXXXXX        ",
"    XXXXXXXXXXXXXXXX............XXXXXXXXXXXXXXXXXXXXXXXX        ",
"        ................................oooooooooooooooo        ",
"        ................................oooooooooooooooo        ",
"        ................................oooooooooooooooo        ",
"        ................................oooooooooooooooo        ",
"        oooooooooooo................ooooooooXXXXXXXXoooooooo    ",
"        oooooooooooo................ooooooooXXXXXXXXoooooooo    ",
"        oooooooooooo................ooooooooXXXXXXXXoooooooo    ",
"        oooooooooooo................ooooooooXXXXXXXXoooooooo    ",
"    oooooooooooooooooooo....ooooooooXXXXXXXXXXXXXXXXXXXXoooo    ",
"    oooooooooooooooooooo....ooooooooXXXXXXXXXXXXXXXXXXXXoooo    ",
"    oooooooooooooooooooo....ooooooooXXXXXXXXXXXXXXXXXXXXoooo    ",
"    oooooooooooooooooooo....ooooooooXXXXXXXXXXXXXXXXXXXXoooo    ",
"    ooooXXXXXXXXXXXXoooo....XXXXXXXXXXXXXXXXXXXXXXXXXXXXXXXX    ",
"    ooooXXXXXXXXXXXXoooo....XXXXXXXXXXXXXXXXXXXXXXXXXXXXXXXX    ",
"    ooooXXXXXXXXXXXXoooo....XXXXXXXXXXXXXXXXXXXXXXXXXXXXXXXX    ",
"    ooooXXXXXXXXXXXXoooo....XXXXXXXXXXXXXXXXXXXXXXXXXXXXXXXX    ",
"    XXXXXXXXXXXXXXXXXXXX....XXXXXXXXXXXXXXXXXXXXXXXXXXXXXXXX    ",
"    XXXXXXXXXXXXXXXXXXXX....XXXXXXXXXXXXXXXXXXXXXXXXXXXXXXXX    ",
"    XXXXXXXXXXXXXXXXXXXX....XXXXXXXXXXXXXXXXXXXXXXXXXXXXXXXX    ",
"    XXXXXXXXXXXXXXXXXXXX....XXXXXXXXXXXXXXXXXXXXXXXXXXXXXXXX    ",
"    XXXXXXXXXXXXXXXX................XXXXXXXXXXXXXXXXXXXX        ",
"    XXXXXXXXXXXXXXXX................XXXXXXXXXXXXXXXXXXXX        ",
"    XXXXXXXXXXXXXXXX................XXXXXXXXXXXXXXXXXXXX        ",
"    XXXXXXXXXXXXXXXX................XXXXXXXXXXXXXXXXXXXX        ",
"        oooooooooooooooooooooooooooo........XXXXoooooooooooo    ",
"        oooooooooooooooooooooooooooo........XXXXoooooooooooo    ",
"        oooooooooooooooooooooooooooo........XXXXoooooooooooo    ",
"        oooooooooooooooooooooooooooo........XXXXoooooooooooo    ",
"    ooooooooooooXXXXXXXXXXXXXXXXoooooooo....ooooooooooooXXXX    ",
"    ooooooooooooXXXXXXXXXXXXXXXXoooooooo....ooooooooooooXXXX    ",
"    ooooooooooooXXXXXXXXXXXXXXXXoooooooo....ooooooooooooXXXX    ",
"    ooooooooooooXXXXXXXXXXXXXXXXoooooooo....ooooooooooooXXXX    ",
"    ooooXXXXXXXXXXXXXXXXXXXXooooXXXXXXXX....ooooXXXXXXXXXXXX    ",
"    ooooXXXXXXXXXXXXXXXXXXXXooooXXXXXXXX....ooooXXXXXXXXXXXX    ",
"    ooooXXXXXXXXXXXXXXXXXXXXooooXXXXXXXX....ooooXXXXXXXXXXXX    ",
"    ooooXXXXXXXXXXXXXXXXXXXXooooXXXXXXXX....ooooXXXXXXXXXXXX    ",
"    XXXXXXXXXXXXXXXXXXXXXXXXXXXXXXXXXXXX........XXXXXXXXXXXX    ",
"    XXXXXXXXXXXXXXXXXXXXXXXXXXXXXXXXXXXX........XXXXXXXXXXXX    ",
"    XXXXXXXXXXXXXXXXXXXXXXXXXXXXXXXXXXXX........XXXXXXXXXXXX    ",
"    XXXXXXXXXXXXXXXXXXXXXXXXXXXXXXXXXXXX........XXXXXXXXXXXX    ",
"OOOO                                                        OOOO",
"OOOO                                                        OOOO",
"OOOO                                                        OOOO",
"OOOO                                                        OOOO"
};
